<?xml version="1.0" encoding="UTF-8"?>
<svg id="Layer_2" data-name="Layer 2" xmlns="http://www.w3.org/2000/svg" viewBox="0 0 731.12 321.65">
  <defs>
    <style>
      .cls-1 {
        fill: #fff;
      }
    </style>
  </defs>
  <g id="Layer_1" data-name="Layer 1">
    <g>
      <path class="cls-1" d="M20.17,305.84l-10.95-17.72H0v33.35h10.11s.15-.14.15-.15v-14.59l7.27,11.6c.2.12,4.26.11,4.74.06.15-.02.26-.01.33-.17l7-11.82.28-.17v15.23h10.11l.05-33.35h-9.21l-10.66,17.72Z"/>
      <path class="cls-1" d="M476.25,299.27c.18.16.81.92.9.9l6.34-6.35c-4.11-5.31-12.33-6.59-18.61-5.35-16.81,3.33-18.47,26.2-2.8,31.83,6.63,2.38,15.15.99,20.94-2.91v-13.49h-9.25v8.2c-4.59,1.72-9.97.44-11.35-4.73-2.43-9.14,7.15-14.1,13.83-8.1Z"/>
      <path class="cls-1" d="M286.35,305.84l-10.95-17.72h-9.21v33.35h10.11s.15-.14.15-.15v-14.59l7.27,11.6c.2.12,4.26.11,4.74.06.15-.02.26-.01.33-.17l7-11.82.28-.17v15.23h10.11l.05-33.35h-9.21l-10.66,17.72Z"/>
      <path class="cls-1" d="M67.37,306.84c0,3.2-2.6,5.8-5.8,5.8s-5.8-2.6-5.8-5.8v-18.8h-10.02v20.7c0,7.03,5.7,12.73,12.73,12.73h6.17c7.03,0,12.73-5.7,12.73-12.73v-20.7h-10.02v18.8Z"/>
      <polygon class="cls-1" points="93.85 288.04 83.02 288.04 83.02 321.41 108.93 321.41 108.93 312.96 93.85 312.96 93.85 288.04"/>
      <polygon class="cls-1" points="202.95 288.04 192.13 288.04 192.13 321.41 218.04 321.41 218.04 312.96 202.95 312.96 202.95 288.04"/>
      <polygon class="cls-1" points="116.57 288.04 106.21 288.04 106.21 296.57 116.57 296.57 116.57 321.41 127.39 321.41 127.39 296.57 137.39 296.57 137.39 288.04 127.39 288.04 116.57 288.04"/>
      <rect class="cls-1" x="140.09" y="288.04" width="10.82" height="33.38"/>
      <rect class="cls-1" x="382.42" y="288.04" width="10.82" height="33.38"/>
      <path class="cls-1" d="M410.29,288.04l-14.35,33.38h10.82l2.06-4.78h13.77l2.06,4.78h10.82l-14.35-33.38h-10.82ZM412.61,307.81l3.09-7.19,3.09,7.19h-6.18Z"/>
      <path class="cls-1" d="M361.6,288.04h-18.68v33.38h18.68c9.22,0,16.69-7.47,16.69-16.69s-7.47-16.69-16.69-16.69ZM367.47,304.72c0,3.24-2.63,5.86-5.86,5.86h-7.85v-11.73h7.85c3.24,0,5.86,2.63,5.86,5.86h0Z"/>
      <polygon class="cls-1" points="232.04 299.97 225.64 288.04 214.82 288.04 226.63 310.07 226.63 321.41 237.45 321.41 237.45 310.07 249.26 288.04 238.44 288.04 232.04 299.97"/>
      <path class="cls-1" d="M175.28,287.74h-17.89v33.67h10.82v-7.7h7.06c7.17,0,12.99-5.81,12.99-12.99s-5.81-12.99-12.99-12.99ZM172.28,305.68h-4.06v-9.12h4.06c2.52,0,4.56,2.04,4.56,4.56s-2.04,4.56-4.56,4.56Z"/>
      <polygon class="cls-1" points="311.19 321.41 337.1 321.41 337.1 312.96 322.02 312.96 322.02 308.95 335.74 308.95 335.74 300.5 322.02 300.5 322.02 296.48 337.1 296.48 337.1 288.04 311.19 288.04 311.19 321.41"/>
      <path class="cls-1" d="M519.69,300.9c0-7.17-5.81-12.99-12.99-12.99h-17.89v33.67h10.82v-7.7h3.35l5.27,7.52h11.43l-6.52-9.3c3.88-2.25,6.53-6.4,6.53-11.2ZM503.7,305.86h-4.06v-9.12h4.06c2.52,0,4.56,2.04,4.56,4.56s-2.04,4.56-4.56,4.56Z"/>
      <path class="cls-1" d="M543.34,287.92h-3.48c-9.22,0-16.7,7.5-16.7,16.75s7.48,16.75,16.7,16.75h3.48c9.22,0,16.7-7.5,16.7-16.75s-7.48-16.75-16.7-16.75ZM541,313.27c-4.21,0-7.62-3.64-7.62-8.12s3.41-8.12,7.62-8.12,7.62,3.64,7.62,8.12-3.41,8.12-7.62,8.12Z"/>
      <path class="cls-1" d="M586.11,307.01c0,3.2-2.6,5.8-5.8,5.8h0c-3.2,0-5.8-2.6-5.8-5.8v-18.8h-10.02v20.7c0,7.03,5.7,12.73,12.73,12.73h6.17c7.03,0,12.73-5.7,12.73-12.73v-20.7h-10.02v18.8Z"/>
      <path class="cls-1" d="M619.75,287.92h-17.89v33.67h10.82v-7.7h7.06c7.17,0,12.99-5.81,12.99-12.99s-5.81-12.99-12.99-12.99ZM616.74,305.86h-4.06v-9.12h4.06c2.52,0,4.56,2.04,4.56,4.56s-2.04,4.56-4.56,4.56Z"/>
      <path class="cls-1" d="M158.71,263.37h53.7l.26-177.17h-48.94l-56.61,94.13-58.19-94.13H0v177.17h53.7c.06,0,.79-.74.79-.79v-77.48l38.62,61.61c1.08.65,22.62.6,25.16.3.77-.09,1.36-.07,1.76-.88l37.17-62.79,1.5-.88v80.92Z"/>
      <path class="cls-1" d="M731.12,18.24l-17.71-18.24-26.91,26.92-27.05-26.92-17.71,18.24c2.76,3.37,26.72,25.53,26.39,27.43-.33,1.89-23.72,22.77-26.37,26.52l17.67,18.23,27.02-26.94,27.77,26.73,16.9-17.94-26.38-26.97,26.4-27.05Z"/>
      <path class="cls-1" d="M595.7,144.1c.98.88,4.5,5.12,4.98,5.01l35.18-35.22c-22.79-29.42-68.38-36.54-103.22-29.64-93.24,18.44-102.44,145.27-15.52,176.49,36.79,13.21,84.03,5.48,116.13-16.14v-74.84h-51.32v45.48c-25.46,9.55-55.3,2.45-62.92-26.22-13.47-50.7,39.63-78.17,76.68-44.92Z"/>
      <path class="cls-1" d="M394.4,86.2l-56.08,94.14-1.23-.89-56.69-93.26h-49.73v177.17h54.49v-78.27c13.51,20.07,25.75,41.09,38.61,61.62l26.91.17,37.52-63.75,1.18-.69.53,80.91h53.96l-.53-177.17h-48.94Z"/>
    </g>
  </g>
</svg>